<svg version="1.2" xmlns="http://www.w3.org/2000/svg" viewBox="0 0 268 273" width="263" height="268">
	<title>Refusleep logo FINAL 16</title>
	<defs>
		<clipPath clipPathUnits="userSpaceOnUse" id="cp1">
			<path d=""/>
		</clipPath>
		<clipPath clipPathUnits="userSpaceOnUse" id="cp2">
			<path d="m-44-42h357v357h-357z"/>
		</clipPath>
		<clipPath clipPathUnits="userSpaceOnUse" id="cp3">
			<path d="m8 11h253v252h-253z"/>
		</clipPath>
		<clipPath clipPathUnits="userSpaceOnUse" id="cp4">
			<path d="m134.5-40.98l177.66 177.66-177.66 177.66-177.66-177.66z"/>
		</clipPath>
		<clipPath clipPathUnits="userSpaceOnUse" id="cp5">
			<path d="m134.5-40.98l177.66 177.66-177.66 177.66-177.66-177.66z"/>
		</clipPath>
		<clipPath clipPathUnits="userSpaceOnUse" id="cp6">
			<path d="m-43.4-41h355.68v355.52h-355.68z"/>
		</clipPath>
		<clipPath clipPathUnits="userSpaceOnUse" id="cp7">
			<path d="m134.5-40.98l177.66 177.66-177.66 177.66-177.66-177.66z"/>
		</clipPath>
		<clipPath clipPathUnits="userSpaceOnUse" id="cp8">
			<path d="m134.5-40.98l177.66 177.66-177.66 177.66-177.66-177.66z"/>
		</clipPath>
		<clipPath clipPathUnits="userSpaceOnUse" id="cp9">
			<path d=""/>
		</clipPath>
		<clipPath clipPathUnits="userSpaceOnUse" id="cp10">
			<path d="m-44-41h357v356h-357z"/>
		</clipPath>
		<clipPath clipPathUnits="userSpaceOnUse" id="cp11">
			<path d="m8 11h253v252h-253z"/>
		</clipPath>
		<clipPath clipPathUnits="userSpaceOnUse" id="cp12">
			<path d="m134.5-40.98l177.66 177.66-177.66 177.66-177.66-177.66z"/>
		</clipPath>
		<clipPath clipPathUnits="userSpaceOnUse" id="cp13">
			<path d="m134.5-40.98l177.66 177.66-177.66 177.66-177.66-177.66z"/>
		</clipPath>
		<clipPath clipPathUnits="userSpaceOnUse" id="cp14">
			<path d="m223.33 225.51q-2.18 2.18-4.47 4.25-2.28 2.07-4.66 4.03-2.39 1.96-4.87 3.79-2.47 1.84-5.04 3.55-2.56 1.72-5.21 3.3-2.64 1.59-5.36 3.04-2.72 1.46-5.51 2.78-2.79 1.31-5.64 2.49-2.84 1.18-5.75 2.22-2.9 1.04-5.86 1.94-2.95 0.89-5.94 1.64-2.99 0.75-6.01 1.35-3.03 0.6-6.08 1.06-3.05 0.45-6.12 0.75-3.07 0.3-6.15 0.46-3.08 0.14-6.16 0.14-3.09 0-6.16-0.14-3.09-0.16-6.16-0.46-3.06-0.3-6.11-0.75-3.06-0.46-6.08-1.06-3.03-0.6-6.02-1.35-2.99-0.75-5.94-1.64-2.95-0.9-5.85-1.94-2.91-1.04-5.75-2.22-2.86-1.18-5.64-2.49-2.79-1.32-5.51-2.78-2.72-1.45-5.37-3.04-2.64-1.58-5.2-3.3-2.57-1.71-5.05-3.55-2.48-1.83-4.86-3.79-2.38-1.96-4.67-4.03-2.28-2.07-4.46-4.25-2.18-2.18-4.25-4.46-2.07-2.29-4.03-4.67-1.96-2.38-3.79-4.86-1.84-2.48-3.55-5.05-1.72-2.56-3.3-5.2-1.59-2.65-3.04-5.37-1.46-2.72-2.78-5.51-1.31-2.78-2.49-5.64-1.19-2.84-2.22-5.75-1.04-2.9-1.94-5.85-0.89-2.95-1.64-5.94-0.75-3-1.35-6.02-0.6-3.02-1.06-6.08-0.45-3.05-0.75-6.11-0.3-3.07-0.46-6.16-0.14-3.07-0.15-6.16 0.01-3.08 0.15-6.16 0.16-3.08 0.46-6.15 0.3-3.07 0.75-6.12 0.46-3.05 1.06-6.08 0.6-3.02 1.35-6.01 0.75-2.99 1.64-5.95 0.9-2.95 1.94-5.85 1.03-2.91 2.22-5.75 1.18-2.85 2.49-5.64 1.32-2.79 2.78-5.51 1.45-2.72 3.04-5.36 1.58-2.65 3.3-5.21 1.71-2.57 3.55-5.04 1.83-2.48 3.79-4.87 1.96-2.38 4.03-4.66 2.07-2.29 4.25-4.47 2.18-2.18 4.46-4.25 2.29-2.07 4.67-4.03 2.38-1.95 4.86-3.79 2.48-1.84 5.05-3.55 2.56-1.72 5.2-3.3 2.65-1.59 5.37-3.04 2.72-1.45 5.51-2.77 2.78-1.32 5.64-2.5 2.84-1.18 5.75-2.22 2.9-1.04 5.85-1.94 2.95-0.89 5.94-1.64 2.99-0.75 6.02-1.35 3.02-0.6 6.08-1.06 3.05-0.45 6.11-0.75 3.07-0.3 6.16-0.45 3.07-0.16 6.16-0.16 3.08 0 6.16 0.16 3.08 0.15 6.15 0.45 3.07 0.3 6.12 0.75 3.05 0.46 6.08 1.06 3.02 0.6 6.01 1.35 2.99 0.75 5.94 1.64 2.96 0.9 5.86 1.94 2.91 1.04 5.75 2.22 2.85 1.18 5.64 2.5 2.79 1.32 5.51 2.77 2.72 1.45 5.36 3.04 2.65 1.58 5.21 3.3 2.57 1.71 5.04 3.55 2.48 1.84 4.87 3.79 2.38 1.96 4.66 4.03 2.29 2.07 4.47 4.25 2.18 2.18 4.25 4.47 2.07 2.28 4.03 4.66 1.95 2.39 3.79 4.87 1.84 2.47 3.55 5.04 1.72 2.56 3.3 5.21 1.59 2.64 3.04 5.36 1.45 2.72 2.77 5.51 1.32 2.79 2.5 5.64 1.18 2.84 2.22 5.75 1.04 2.9 1.93 5.85 0.9 2.96 1.65 5.95 0.75 2.99 1.35 6.01 0.6 3.03 1.06 6.08 0.45 3.05 0.75 6.12 0.3 3.07 0.45 6.15 0.16 3.08 0.15 6.16 0.01 3.09-0.15 6.16-0.15 3.09-0.45 6.16-0.3 3.06-0.75 6.11-0.46 3.06-1.06 6.08-0.6 3.02-1.35 6.02-0.75 2.99-1.65 5.94-0.89 2.95-1.93 5.85-1.04 2.91-2.22 5.75-1.18 2.86-2.5 5.64-1.32 2.79-2.77 5.51-1.45 2.72-3.04 5.37-1.58 2.64-3.3 5.2-1.71 2.57-3.55 5.05-1.84 2.48-3.79 4.86-1.96 2.38-4.03 4.67-2.07 2.28-4.25 4.46z"/>
		</clipPath>
		<clipPath clipPathUnits="userSpaceOnUse" id="cp15">
			<path d="m4.63 6.63h259.74v259.74h-259.74z"/>
		</clipPath>
		<clipPath clipPathUnits="userSpaceOnUse" id="cp16">
			<path d="m264.37 136.5c0 71.72-58.15 129.87-129.87 129.87-71.73 0-129.87-58.15-129.87-129.87 0-71.72 58.14-129.87 129.87-129.87 71.73 0 129.87 58.15 129.87 129.87z"/>
		</clipPath>
		<clipPath clipPathUnits="userSpaceOnUse" id="cp17">
			<path d="m69.59 128.17h129.75v95.25h-129.75z"/>
		</clipPath>
	</defs>
	<style>
		.s0 { fill: #ef3a4c } 
		.s1 { fill: #000000 } 
		.s2 { fill: #6096ba } 
		.s3 { fill: #ffffff } 
	</style>
	<g id="Clip-Path" clip-path="url(#cp1)">
		<g id="Layer">
			<g id="Layer">
				<g id="Clip-Path" clip-path="url(#cp2)">
					<g id="Layer">
						<g id="Clip-Path" clip-path="url(#cp3)">
							<g id="Layer">
								<g id="Clip-Path" clip-path="url(#cp4)">
									<g id="Layer">
										<g id="Clip-Path" clip-path="url(#cp5)">
											<g id="Layer">
												<path id="Layer" class="s0" d="m223.3 225.5q-2.2 2.2-4.4 4.3-2.3 2-4.7 4-2.4 1.9-4.9 3.8-2.4 1.8-5 3.5-2.6 1.7-5.2 3.3-2.7 1.6-5.4 3.1-2.7 1.4-5.5 2.7-2.8 1.4-5.6 2.5-2.9 1.2-5.8 2.3-2.9 1-5.8 1.9-3 0.9-6 1.6-3 0.8-6 1.4-3 0.6-6.1 1-3 0.5-6.1 0.8-3.1 0.3-6.1 0.5-3.1 0.1-6.2 0.1-3.1 0-6.2-0.1-3-0.2-6.1-0.5-3.1-0.3-6.1-0.8-3.1-0.4-6.1-1-3-0.6-6-1.4-3-0.7-6-1.6-2.9-0.9-5.8-1.9-2.9-1.1-5.8-2.3-2.8-1.1-5.6-2.5-2.8-1.3-5.5-2.7-2.7-1.5-5.4-3.1-2.6-1.6-5.2-3.3-2.6-1.7-5-3.5-2.5-1.9-4.9-3.8-2.4-2-4.7-4-2.3-2.1-4.4-4.3-2.2-2.2-4.3-4.5-2.1-2.2-4-4.6-2-2.4-3.8-4.9-1.8-2.5-3.6-5-1.7-2.6-3.3-5.2-1.5-2.7-3-5.4-1.4-2.7-2.8-5.5-1.3-2.8-2.5-5.6-1.1-2.9-2.2-5.8-1-2.9-1.9-5.9-0.9-2.9-1.7-5.9-0.7-3-1.3-6-0.6-3-1.1-6.1-0.4-3-0.7-6.1-0.3-3.1-0.5-6.2-0.1-3-0.1-6.1 0-3.1 0.1-6.2 0.2-3.1 0.5-6.1 0.3-3.1 0.7-6.2 0.5-3 1.1-6 0.6-3.1 1.3-6 0.8-3 1.7-6 0.9-2.9 1.9-5.8 1.1-2.9 2.2-5.8 1.2-2.8 2.5-5.6 1.4-2.8 2.8-5.5 1.5-2.8 3-5.4 1.6-2.6 3.3-5.2 1.8-2.6 3.6-5.1 1.8-2.4 3.8-4.8 1.9-2.4 4-4.7 2.1-2.3 4.3-4.4 2.1-2.2 4.4-4.3 2.3-2.1 4.7-4 2.4-2 4.9-3.8 2.4-1.9 5-3.6 2.6-1.7 5.2-3.3 2.7-1.6 5.4-3 2.7-1.5 5.5-2.8 2.8-1.3 5.6-2.5 2.9-1.2 5.8-2.2 2.9-1 5.8-1.9 3-0.9 6-1.7 3-0.7 6-1.3 3-0.6 6.1-1.1 3-0.4 6.1-0.7 3.1-0.3 6.1-0.5 3.1-0.1 6.2-0.1 3.1 0 6.2 0.1 3 0.2 6.1 0.5 3.1 0.3 6.1 0.7 3.1 0.5 6.1 1.1 3 0.6 6 1.3 3 0.8 6 1.7 2.9 0.9 5.8 1.9 2.9 1 5.8 2.2 2.8 1.2 5.6 2.5 2.8 1.3 5.5 2.8 2.7 1.4 5.4 3 2.6 1.6 5.2 3.3 2.6 1.7 5 3.6 2.5 1.8 4.9 3.8 2.4 1.9 4.7 4 2.2 2.1 4.4 4.3 2.2 2.1 4.3 4.4 2.1 2.3 4 4.7 2 2.4 3.8 4.8 1.8 2.5 3.6 5.1 1.7 2.6 3.2 5.2 1.6 2.6 3.1 5.4 1.4 2.7 2.8 5.5 1.3 2.8 2.5 5.6 1.1 2.9 2.2 5.8 1 2.9 1.9 5.8 0.9 3 1.7 6 0.7 2.9 1.3 6 0.6 3 1.1 6 0.4 3.1 0.7 6.2 0.3 3 0.5 6.1 0.1 3.1 0.1 6.2 0 3.1-0.1 6.1-0.2 3.1-0.5 6.2-0.3 3.1-0.7 6.1-0.5 3.1-1.1 6.1-0.6 3-1.3 6-0.8 3-1.7 5.9-0.9 3-1.9 5.9-1.1 2.9-2.2 5.8-1.2 2.8-2.5 5.6-1.4 2.8-2.8 5.5-1.5 2.7-3.1 5.4-1.5 2.6-3.2 5.2-1.8 2.5-3.6 5-1.8 2.5-3.8 4.9-1.9 2.4-4 4.6-2.1 2.3-4.3 4.5z"/>
											</g>
										</g>
									</g>
								</g>
							</g>
						</g>
						<g id="Clip-Path" clip-path="url(#cp6)">
							<g id="Layer">
								<g id="Clip-Path" clip-path="url(#cp7)">
									<g id="Layer">
										<g id="Clip-Path" clip-path="url(#cp8)">
											<g id="Layer">
												<g id="Clip-Path" clip-path="url(#cp9)">
													<g id="Layer">
														<g id="Layer">
															<g id="Clip-Path" clip-path="url(#cp10)">
																<g id="Layer">
																	<g id="Clip-Path" clip-path="url(#cp11)">
																		<g id="Layer">
																			<g id="Clip-Path" clip-path="url(#cp12)">
																				<g id="Layer">
																					<g id="Clip-Path" clip-path="url(#cp13)">
																						<g id="Layer">
																							<g id="Clip-Path" clip-path="url(#cp14)">
																								<g id="Layer">
																									<path id="Layer" class="s1" d="m134.5-114.6l251.3 251.3-251.3 251.2-251.3-251.2z"/>
																								</g>
																							</g>
																						</g>
																					</g>
																				</g>
																			</g>
																		</g>
																	</g>
																</g>
															</g>
														</g>
													</g>
												</g>
											</g>
										</g>
									</g>
								</g>
							</g>
						</g>
					</g>
				</g>
			</g>
		</g>
	</g>
	<g id="Clip-Path" clip-path="url(#cp15)">
		<g id="Layer">
			<g id="Clip-Path" clip-path="url(#cp16)">
				<g id="Layer">
					<path id="Layer" class="s2" d="m4.6 6.6h259.8v259.8h-259.8z"/>
				</g>
			</g>
		</g>
	</g>
	<g id="Clip-Path" clip-path="url(#cp17)">
		<g id="Layer">
			<path id="Layer" fill-rule="evenodd" class="s3" d="m199.3 199v8.3c0 0.6-0.2 1.1-0.6 1.4-0.3 0.3-0.7 0.6-1.3 0.6q-0.1 0-0.2 0c-2.8 0.1-5.6 0.1-8.4 0v6c0 1 0.1 2 0 3-0.3 2.8-2.4 4.8-5 5.1q-0.2 0-0.4 0-0.2 0-0.3 0c-2.5-0.1-4.7-1.2-5.6-3.7-0.4-1.2-0.3-2.6-0.3-3.8v-6.6h-85.5v6c0 1 0 2 0 3-0.3 2.8-2.4 4.8-5 5.1q-0.2 0-0.4 0-0.2 0-0.3 0c-2.5-0.1-4.7-1.2-5.6-3.7-0.4-1.2-0.3-2.6-0.3-3.8v-6.6h-8.5c-1.1 0-2-0.9-2-2v-8.3c0-1.1 0.9-2 2-2q0.1 0 0.2 0 2.1 0 4.2 0-0.9-1-1.5-2.2c-1.4-2.6-1.5-5.4-1.5-8.3 0-2.4 0-4.9 0-7.3 0.1-6.3 4.8-11.2 10.8-11.9v-25.3c0-3.5 0.6-6.7 3-9.5 2.4-2.9 6-4.2 9.7-4.2h65.7c3.7 0 7.4-0.1 11.1 0 6.4 0.3 11.5 5.6 11.6 12.1 0 1.7 0 3.4 0 5.1v21.9c1.8 0.1 3.6 0.5 5.3 1.6 3.5 2.1 5.6 6 5.7 10.2 0 2.3 0 4.7 0 7.1 0 2.8 0 5.6-1.3 8.2q-0.7 1.4-1.7 2.5h4.5c1 0 1.9 0.9 1.9 2zm-14.4 10.2h-3.7v5.3c0 1.1-0.1 2.3 0 3.3 0 1.4 1 1.7 2.2 1.7 2.2-0.2 1.5-4.2 1.5-5.6zm10.5-3.9v-4.3c-1.1 0-2.1 0-3.2 0h-118.7v4.2c1.1 0 2.2 0.1 3.2 0.1h5q0.2 0 0.4 0h7.6q0.2 0 0.4 0h88.7q0.2 0 0.4 0h7.6q0.2 0 0.4 0zm-107.6 3.9h-3.7v5.3c0 1.1-0.1 2.2 0 3.3 0.1 1.4 1 1.6 2.2 1.6 2.2-0.1 1.5-4.1 1.5-5.5zm-3.7-12.2q1.5 0 2.9 0h97.7c3.4-0.3 6.3-2.7 7.1-6.1 0.5-2.1 0.2-4.6 0.2-6.8 0-2.2 0.3-4.6-0.2-6.8-0.8-3.3-3.6-5.7-6.9-6.1q-0.4 0-0.9 0-0.5-0.1-1 0h-95.8q-0.7-0.1-1.4 0-1 0-2 0.1c-1.4 0.2-2.7 0.6-3.9 1.6-2.3 1.9-2.9 4.5-2.9 7.3v7.9c0 2.8 0.7 5.5 3 7.3 1.3 0.9 2.6 1.4 4.1 1.6zm3.7-50.6v20.8q1.2 0 2.4 0c0-4.7-0.1-9.4 0-14.1 0.2-4.8 3.9-8.5 8.7-8.6 1.9-0.1 3.7 0 5.6 0h19.6c1.8 0 3.8-0.2 5.6 0.2 2 0.4 3.6 1.5 4.7 3 1.6-1.9 4-3.2 6.7-3.2 1.9-0.1 3.7 0 5.6 0h19.5c1.9 0 3.9-0.2 5.7 0.2 4.2 0.9 6.6 4.8 6.6 8.9q0 6.8 0 13.6h2.5v-24.7c0-2.6 0-5-1.7-7.2-1.9-2.3-4.5-3.1-7.3-3.1h-64.9c-3.8 0-7.5 0-11.3 0-4.5 0.1-8 3.7-8 8.3-0.1 1.9 0 3.9 0 5.9zm6.4 7.8v13q4.8 0 9.7 0h28.5c0-4.6-0.1-9.3 0-14 0-2.8-2.2-4.8-5-4.8q-2.9 0-5.7 0h-18.8c-1.4 0-2.7 0-4.1 0-1.9 0-3.7 1.3-4.4 3.1-0.3 0.9-0.2 1.8-0.2 2.7zm42.1 0v13h38.3c0-4.6 0-9.3 0-14 0-2.8-2.2-4.8-5-4.8q-2.9 0-5.8 0h-18.7c-1.4 0-2.7 0-4.1 0-1.9 0-3.7 1.3-4.4 3.1-0.2 0.7-0.3 1.3-0.3 2q0 0.4 0 0.7z"/>
		</g>
	</g>
	<g id="Layer">
		<g id="Layer">
			<g id="Layer">
				<path id="Layer" fill-rule="evenodd" class="s3" d="m41.6 92.9v7.4q-0.4 0.2-1.3 0.3-0.9 0.1-1.8 0.1-0.9 0-1.5-0.2-0.7-0.1-1.1-0.4-0.5-0.4-0.7-1-0.3-0.6-0.3-1.6v-18.1q0-0.8 0.5-1.3 0.4-0.4 1.2-0.7 1.3-0.4 3-0.7 1.8-0.2 3.7-0.2 5.4 0 8 2.3 2.7 2.2 2.7 6 0 2.4-1.2 4.1-1.2 1.7-2.9 2.6 1.4 1.9 2.7 3.5 1.3 1.7 2.1 3-0.4 1.4-1.4 2.1-1 0.7-2.3 0.7-0.8 0-1.4-0.2-0.7-0.2-1.1-0.5-0.5-0.4-0.9-0.9-0.3-0.5-0.7-1l-3.2-5.3zm2.4-5.1q1.5 0 2.3-0.7 0.9-0.8 0.9-2.2 0-1.5-1-2.2-0.9-0.8-3-0.8-0.5 0-0.9 0.1-0.3 0-0.7 0.1v5.7z"/>
			</g>
		</g>
	</g>
	<g id="Layer">
		<g id="Layer">
			<g id="Layer">
				<path id="Layer" fill-rule="evenodd" class="s3" d="m71 101.1q-2.2 0-4.2-0.6-1.9-0.7-3.4-1.9-1.4-1.3-2.2-3.2-0.9-1.9-0.9-4.5 0-2.6 0.9-4.4 0.8-1.8 2.1-3 1.4-1.2 3.1-1.7 1.7-0.6 3.6-0.6 2 0 3.7 0.6 1.7 0.6 2.9 1.7 1.2 1.1 1.8 2.6 0.7 1.5 0.7 3.3 0 1.3-0.7 2-0.8 0.7-2 0.9l-9.6 1.4q0.5 1.3 1.8 1.9 1.3 0.6 3 0.6 1.5 0 3-0.4 1.4-0.4 2.3-0.9 0.6 0.4 1 1.1 0.4 0.7 0.4 1.4 0 1.8-1.6 2.6-1.2 0.7-2.8 0.9-1.5 0.2-2.9 0.2zm-1-15.1q-1 0-1.6 0.3-0.7 0.3-1.1 0.8-0.5 0.5-0.7 1.1-0.2 0.6-0.2 1.2l6.6-1.1q-0.2-0.8-0.9-1.5-0.7-0.8-2.1-0.8z"/>
			</g>
		</g>
	</g>
	<g id="Layer">
		<g id="Layer">
			<g id="Layer">
				<path id="Layer" class="s3" d="m85.6 81.8q0-2 0.7-3.4 0.7-1.4 1.8-2.3 1.2-0.9 2.7-1.3 1.6-0.4 3.4-0.4 2.8 0 4.2 0.7 1.3 0.8 1.3 2.6 0 0.8-0.3 1.4-0.4 0.6-0.7 0.9-0.8-0.2-1.6-0.3-0.7-0.2-1.8-0.2-1.6 0-2.6 0.6-0.9 0.6-0.9 1.9v1.3h6.3q0.3 0.4 0.5 1 0.2 0.7 0.2 1.4 0 1.4-0.6 2-0.6 0.6-1.6 0.6h-4.4v12.2q-0.4 0.1-1.3 0.2-0.8 0.1-1.7 0.1-0.8 0-1.5-0.1-0.7-0.1-1.1-0.5-0.5-0.3-0.7-0.9-0.3-0.6-0.3-1.6z"/>
			</g>
		</g>
	</g>
	<g id="Layer">
		<g id="Layer">
			<g id="Layer">
				<path id="Layer" class="s3" d="m105.4 82.1q0.3-0.1 1.2-0.3 0.8-0.1 1.7-0.1 0.8 0 1.5 0.1 0.7 0.2 1.1 0.5 0.5 0.4 0.8 0.9 0.2 0.6 0.2 1.6v8.3q0 1.6 0.8 2.2 0.7 0.7 2.2 0.7 0.9 0 1.4-0.2 0.6-0.1 0.9-0.3v-13.4q0.4-0.1 1.2-0.3 0.8-0.1 1.7-0.1 0.9 0 1.6 0.1 0.6 0.2 1.1 0.5 0.4 0.4 0.7 0.9 0.2 0.6 0.2 1.6v11.7q0 1.9-1.6 2.9-1.3 0.8-3.2 1.3-1.9 0.4-4 0.4-2.1 0-3.9-0.5-1.7-0.4-3-1.4-1.3-0.9-2-2.5-0.6-1.5-0.6-3.6z"/>
			</g>
		</g>
	</g>
	<g id="Layer">
		<g id="Layer">
			<g id="Layer">
				<path id="Layer" class="s3" d="m146.8 94.9q0 2.9-2.2 4.6-2.2 1.7-6.5 1.7-1.6 0-3-0.3-1.3-0.2-2.3-0.7-1-0.5-1.6-1.2-0.5-0.7-0.5-1.7 0-1 0.3-1.6 0.4-0.6 1-1 1.1 0.6 2.5 1 1.5 0.5 3.4 0.5 1.2 0 1.8-0.3 0.6-0.4 0.6-1 0-0.5-0.4-0.8-0.5-0.3-1.6-0.5l-1.1-0.2q-3.4-0.7-5-2.1-1.7-1.4-1.7-4 0-1.4 0.7-2.6 0.6-1.1 1.7-1.9 1.1-0.8 2.7-1.2 1.5-0.4 3.4-0.4 1.4 0 2.7 0.2 1.2 0.2 2.2 0.6 0.9 0.5 1.4 1.1 0.6 0.7 0.6 1.6 0 0.9-0.4 1.5-0.3 0.7-0.8 1.1-0.3-0.2-0.9-0.4-0.6-0.2-1.4-0.4-0.7-0.2-1.4-0.3-0.8-0.1-1.4-0.1-1.3 0-2 0.3-0.7 0.3-0.7 0.9 0 0.4 0.4 0.7 0.4 0.3 1.5 0.5l1.2 0.3q3.7 0.8 5.2 2.3 1.6 1.5 1.6 3.8z"/>
			</g>
		</g>
	</g>
	<g id="Layer">
		<g id="Layer">
			<g id="Layer">
				<path id="Layer" class="s3" d="m159.9 100.5q-0.5 0-1.3 0.2-0.8 0.1-1.6 0.1-0.9 0-1.6-0.1-0.6-0.1-1.1-0.5-0.5-0.3-0.7-0.9-0.3-0.6-0.3-1.6v-22.3q0.4-0.1 1.3-0.2 0.8-0.1 1.7-0.1 0.8 0 1.5 0.1 0.6 0.1 1.1 0.5 0.5 0.3 0.7 0.9 0.3 0.6 0.3 1.6z"/>
			</g>
		</g>
	</g>
	<g id="Layer">
		<g id="Layer">
			<g id="Layer">
				<path id="Layer" fill-rule="evenodd" class="s3" d="m177.1 101.1q-2.2 0-4.2-0.6-1.9-0.7-3.4-1.9-1.4-1.3-2.2-3.2-0.9-1.9-0.9-4.5 0-2.6 0.9-4.4 0.8-1.8 2.1-3 1.4-1.2 3.1-1.7 1.8-0.6 3.6-0.6 2 0 3.7 0.6 1.7 0.6 2.9 1.7 1.2 1.1 1.9 2.6 0.6 1.5 0.6 3.3 0 1.3-0.7 2-0.7 0.7-2 0.9l-9.6 1.4q0.5 1.3 1.8 1.9 1.3 0.6 3 0.6 1.6 0 3-0.4 1.4-0.4 2.3-0.9 0.6 0.4 1 1.1 0.4 0.7 0.4 1.4 0 1.8-1.6 2.6-1.2 0.7-2.8 0.9-1.5 0.2-2.9 0.2zm-1-15.1q-1 0-1.6 0.3-0.7 0.3-1.1 0.8-0.5 0.5-0.7 1.1-0.2 0.6-0.2 1.2l6.6-1.1q-0.2-0.8-0.9-1.5-0.7-0.8-2.1-0.8z"/>
			</g>
		</g>
	</g>
	<g id="Layer">
		<g id="Layer">
			<g id="Layer">
				<path id="Layer" fill-rule="evenodd" class="s3" d="m201.5 101.1q-2.2 0-4.2-0.6-1.9-0.7-3.4-1.9-1.4-1.3-2.2-3.2-0.9-1.9-0.9-4.5 0-2.6 0.9-4.4 0.8-1.8 2.1-3 1.4-1.2 3.1-1.7 1.7-0.6 3.6-0.6 2 0 3.7 0.6 1.7 0.6 2.9 1.7 1.2 1.1 1.8 2.6 0.7 1.5 0.7 3.3 0 1.3-0.7 2-0.8 0.7-2 0.9l-9.6 1.4q0.5 1.3 1.8 1.9 1.3 0.6 3 0.6 1.5 0 3-0.4 1.4-0.4 2.3-0.9 0.6 0.4 1 1.1 0.4 0.7 0.4 1.4 0 1.8-1.6 2.6-1.2 0.7-2.8 0.9-1.5 0.2-2.9 0.2zm-1-15.1q-1 0-1.6 0.3-0.7 0.3-1.1 0.8-0.5 0.5-0.7 1.1-0.2 0.6-0.2 1.2l6.6-1.1q-0.2-0.8-0.9-1.5-0.7-0.8-2.1-0.8z"/>
			</g>
		</g>
	</g>
	<g id="Layer">
		<g id="Layer">
			<g id="Layer">
				<path id="Layer" fill-rule="evenodd" class="s3" d="m224.6 81.2q2.3 0 4.3 0.6 2 0.6 3.4 1.9 1.4 1.2 2.2 3 0.9 1.9 0.9 4.5 0 2.5-0.7 4.3-0.7 1.8-2 3.1-1.3 1.2-3.1 1.9-1.7 0.6-3.9 0.6-1.7 0-3.1-0.5v6.4q-0.4 0.1-1.2 0.2-0.9 0.1-1.8 0.1-0.8 0-1.5-0.1-0.7-0.1-1.1-0.4-0.5-0.4-0.7-1-0.3-0.6-0.3-1.5v-18.5q0-1 0.5-1.7 0.4-0.6 1.2-1.2 1.2-0.7 3-1.2 1.7-0.5 3.9-0.5zm0.1 14.7q4 0 4-4.7 0-2.5-1-3.7-1-1.2-2.8-1.2-0.8 0-1.4 0.2-0.5 0.2-1 0.4v8.5q0.5 0.2 1 0.4 0.6 0.1 1.2 0.1z"/>
			</g>
		</g>
	</g>
	<g id="Layer">
		<g id="Layer">
			<g id="Layer">
			</g>
		</g>
	</g>
</svg>